@startuml

class Client

interface Target {
  {abstract} targetMethod1()
  {abstract} targetMethod2()
}

class Adapter {
  targetMethod1()
  targetMethod2()
}

class Adaptee {
  methodA()
  methodB()
  methodC()
}

Client -d-> Target : Uses >
Adapter ..l..|> Target : implements >
Adapter --r--|> Adaptee : extends >

@enduml
